<svg xmlns="http://www.w3.org/2000/svg" xmlns:xlink="http://www.w3.org/1999/xlink" width="500" zoomAndPan="magnify" viewBox="0 0 375 374.999991" height="500" preserveAspectRatio="xMidYMid meet" version="1.0"><defs><clipPath id="454efeee21"><path d="M 242 184 L 373.5 184 L 373.5 352 L 242 352 Z M 242 184 " clip-rule="nonzero"/></clipPath><clipPath id="43866d87fa"><path d="M 290 81 L 373.5 81 L 373.5 183 L 290 183 Z M 290 81 " clip-rule="nonzero"/></clipPath><clipPath id="607ae3e985"><path d="M 218 353 L 373.5 353 L 373.5 375 L 218 375 Z M 218 353 " clip-rule="nonzero"/></clipPath><clipPath id="871b4fe2d2"><path d="M 0 0 L 373.5 0 L 373.5 264 L 0 264 Z M 0 0 " clip-rule="nonzero"/></clipPath></defs><path fill="#ffffff" d="M 276.449219 183.898438 C 271.242188 159.976562 261.046875 146.457031 255.074219 140.273438 C 255.375 147.570312 255.847656 163.03125 255.675781 184.421875 L 276.449219 183.898438 " fill-opacity="1" fill-rule="nonzero"/><g clip-path="url(#454efeee21)"><path fill="#ffffff" d="M 454.246094 189.574219 L 319.527344 186.183594 C 316.476562 213.625 301.988281 236.902344 301.988281 236.902344 C 313.675781 215.207031 309.089844 197.523438 302.285156 185.746094 L 283.175781 185.261719 C 280.78125 191.179688 278.542969 196.257812 278.542969 196.257812 C 278.058594 192.3125 277.433594 188.605469 276.707031 185.105469 L 255.675781 184.570312 C 255.363281 224.484375 252.800781 284.972656 242.683594 351.726562 L 405.96875 347.613281 C 436.425781 303.351562 454.273438 249.738281 454.273438 191.957031 C 454.273438 191.160156 454.253906 190.367188 454.246094 189.574219 " fill-opacity="1" fill-rule="nonzero"/></g><path fill="#ffffff" d="M 283.804688 183.710938 L 300.769531 183.285156 C 295.125 174.554688 288.703125 169.6875 288.703125 169.6875 C 288.003906 172.824219 285.910156 178.445312 283.804688 183.710938 " fill-opacity="1" fill-rule="nonzero"/><g clip-path="url(#43866d87fa)"><path fill="#ffffff" d="M 369.203125 97.003906 C 357.480469 90.75 349.664062 97.003906 349.664062 97.003906 C 389.523438 110.292969 392.652344 152.496094 392.652344 152.496094 C 379.363281 124.359375 338.71875 121.230469 338.71875 121.230469 L 346.539062 138.425781 C 334.035156 123.574219 290.265625 121.230469 290.265625 121.230469 C 315.585938 137.886719 321.4375 161.351562 319.839844 182.804688 L 453.976562 179.421875 C 452.449219 145.324219 444.707031 112.84375 431.851562 83.082031 L 351.878906 81.070312 C 363.742188 87.832031 369.203125 97.003906 369.203125 97.003906 " fill-opacity="1" fill-rule="nonzero"/></g><g clip-path="url(#607ae3e985)"><path fill="#ffffff" d="M 218.570312 464.0625 C 292.023438 453.570312 356.121094 414.054688 398.851562 357.488281 L 242.410156 353.542969 C 236.917969 389.371094 229.242188 426.933594 218.570312 464.0625 " fill-opacity="1" fill-rule="nonzero"/></g><g clip-path="url(#871b4fe2d2)"><path fill="#ffffff" d="M 163.652344 188.445312 C 158.183594 191.570312 133.171875 210.328125 133.171875 210.328125 C 123.792969 189.226562 182.410156 133.734375 182.410156 133.734375 C 166 132.953125 145.675781 157.183594 145.675781 157.183594 C 145.675781 149.367188 154.273438 132.953125 154.273438 132.953125 C 137.078125 143.113281 110.507812 197.046875 110.507812 197.046875 C 95.65625 162.65625 120.667969 116.542969 120.667969 116.542969 L 97.21875 126.933594 C 129.265625 70.117188 212.109375 86.0625 212.109375 86.0625 C 208.992188 82.207031 204.863281 79.347656 200.21875 77.246094 L 195.46875 77.125 L 199.683594 77.015625 C 179.867188 68.363281 151.148438 73.089844 151.148438 73.089844 L 173.8125 62.617188 C 157.402344 52.457031 115.976562 73.089844 115.976562 73.089844 C 137.863281 36.671875 177.722656 33.699219 177.722656 33.699219 L 151.929688 30.570312 C 226.960938 -16.324219 242.589844 73.089844 242.589844 73.089844 C 241.808594 28.851562 287.921875 17.324219 287.921875 17.324219 L 281.671875 29.789062 C 330.125 -2.253906 353.570312 37.605469 353.570312 37.605469 C 318.402344 23.535156 305.894531 52.457031 305.894531 52.457031 L 328.566406 57.144531 C 310.640625 58.734375 297.398438 67.027344 288.703125 74.777344 L 426.4375 71.308594 C 381.75 -20.035156 287.914062 -82.949219 179.367188 -82.949219 C 43.140625 -82.949219 -69.925781 16.148438 -91.722656 146.183594 L 39.113281 149.476562 L -92.75 152.804688 C -94.574219 165.59375 -95.539062 178.660156 -95.539062 191.957031 C -95.539062 214.371094 -92.835938 236.148438 -87.773438 257.007812 L 165.082031 263.375 C 151.566406 232.976562 163.652344 188.445312 163.652344 188.445312 " fill-opacity="1" fill-rule="nonzero"/></g><path fill="#ffffff" d="M 231.632812 149.296875 L 230.089844 150.382812 C 214.449219 154.523438 208.199219 203.296875 208.199219 203.296875 L 196.480469 192.355469 C 184.757812 200.949219 197.257812 235.339844 197.257812 235.339844 L 187.878906 223.621094 C 181.953125 228.632812 181.085938 248.289062 181.386719 263.789062 L 193.722656 264.101562 L 181.398438 264.410156 C 181.628906 275.1875 182.410156 283.796875 182.410156 283.796875 C 174.734375 279.09375 169.410156 272.429688 165.757812 264.804688 L -83.953125 271.09375 C -51.679688 378.628906 44.660156 458.402344 160.734375 466.179688 C 197.175781 389.652344 245.152344 263.179688 231.632812 149.296875 " fill-opacity="1" fill-rule="nonzero"/></svg>